PathFileType	4	(X/Y/Z)	 s07c0403.trc
DataRate	CameraRate	NumFrames	NumMarkers	Units	OrigDataRate	OrigDataStartFrame	OrigNumFrames
200	200	7	48	mm	200	501	2000
Frame#	Time	racr			lacr			c7			jug			rlel			rdr			llel			ldr			s2			lic			ric			lasi			rasi			rpsi			lpsi			rgt			lgt			rth1			rth2			rth3			rth4			rlfc			rmfc			rsh1			rsh2			rsh3			rsh4			rlmal			rcal			rtoe			rmt5			lth1			lth2			lth4			lth3			llfc			lmfc			lsh1			lsh2			lsh3			lsh4			llmal			lcal			ltoe			lmt5			SBIKE			LBIKE			RBIKE			
		X1	Y1	Z1	X2	Y2	Z2	X3	Y3	Z3	X4	Y4	Z4	X5	Y5	Z5	X6	Y6	Z6	X7	Y7	Z7	X8	Y8	Z8	X9	Y9	Z9	X10	Y10	Z10	X11	Y11	Z11	X12	Y12	Z12	X13	Y13	Z13	X14	Y14	Z14	X15	Y15	Z15	X16	Y16	Z16	X17	Y17	Z17	X18	Y18	Z18	X19	Y19	Z19	X20	Y20	Z20	X21	Y21	Z21	X22	Y22	Z22	X23	Y23	Z23	X24	Y24	Z24	X25	Y25	Z25	X26	Y26	Z26	X27	Y27	Z27	X28	Y28	Z28	X29	Y29	Z29	X30	Y30	Z30	X31	Y31	Z31	X32	Y32	Z32	X33	Y33	Z33	X34	Y34	Z34	X35	Y35	Z35	X36	Y36	Z36	X37	Y37	Z37	X38	Y38	Z38	X39	Y39	Z39	X40	Y40	Z40	X41	Y41	Z41	X42	Y42	Z42	X43	Y43	Z43	X44	Y44	Z44	X45	Y45	Z45	X46	Y46	Z46	X47	Y47	Z47	X48	Y48	Z48	
501	2.5050	651.433087	1496.797403	-8.026681	686.497616	1497.773445	-339.412750	642.999103	1567.454332	-165.821418	638.028793	1419.801343	-179.802146	514.482239	1156.453363	32.939045	689.312780	928.317333	-53.541988	558.594341	1200.658901	-514.962584	705.602817	953.927159	-438.770497	121.557910	1245.987716	-224.310147	280.822869	1294.178393	-374.209749	287.416742	1273.376317	-78.744534	305.582047	1211.049078	-356.126280	311.129276	1229.216523	-102.962305	149.302658	1281.218041	-174.724769	160.457985	1292.219153	-284.670594	249.224109	1159.979548	-38.004723	196.650919	1136.618680	-391.593616	375.706039	1069.016063	-43.560661	451.138421	1026.137554	-57.292777	498.101040	955.015826	-57.536357	471.834011	1050.253236	-78.124710	567.815985	842.419923	-96.527289	552.592586	836.246843	-203.690359	450.500152	765.867674	-70.594761	382.503564	711.554505	-90.103680	298.758989	689.976222	-79.621312	390.066892	701.132039	-128.104066	173.612350	634.069811	-73.930000	95.270871	657.998266	-104.454098	280.311300	434.294971	-122.693853	204.472822	467.857366	-50.521698	206.806575	1016.217579	-406.811255	240.467720	935.247756	-415.830010	276.844358	939.858595	-413.756119	230.734594	846.954689	-409.736627	259.560395	677.824315	-386.614620	254.207046	657.686110	-296.357323	198.985388	543.076806	-409.081358	197.011124	461.289640	-391.993998	144.836124	382.867836	-397.023696	200.911588	459.459341	-350.315568	94.223258	255.981496	-392.069662	20.222575	228.899309	-358.382300	303.048608	163.364287	-357.078463	218.938823	151.589185	-421.069996	-258.014665	966.994204	-232.990265	-75.729009	83.331814	-437.315254	-82.299916	79.680398	-39.990718	
502	2.5100	651.941447	1495.009027	-4.534547	687.597973	1498.256751	-335.758827	644.643049	1566.975418	-161.468667	638.242864	1419.527890	-176.751093	513.478638	1155.098107	33.394768	688.685391	927.757707	-53.982223	560.082589	1202.209712	-512.860083	705.981237	954.009625	-439.218109	121.614144	1249.950036	-226.078178	282.451194	1296.607664	-373.190917	285.398660	1276.563323	-79.239933	306.388468	1213.400265	-356.331969	309.791867	1232.766592	-103.259160	149.021414	1285.310285	-176.438097	161.142517	1295.796311	-286.297902	247.617370	1164.465863	-38.501805	197.043908	1139.531972	-392.053142	374.663480	1073.391545	-44.231499	450.139052	1030.816114	-58.059636	497.686515	959.714560	-59.027778	470.773879	1055.029089	-78.854729	567.975903	847.521740	-97.698363	552.020122	841.529037	-204.052769	451.508289	769.536008	-71.647541	384.308618	714.111811	-90.882942	300.616998	691.877909	-80.324195	391.720223	704.349739	-128.997974	176.125702	634.512589	-74.401552	97.095743	656.505111	-104.208820	288.078189	438.064416	-122.384493	210.993289	469.387647	-50.705154	205.721866	1019.232484	-406.836508	238.199270	937.747442	-415.312252	274.756578	942.142054	-413.411316	226.962158	849.593175	-409.346659	253.378898	680.229617	-385.529873	247.562331	660.096621	-295.358241	193.151790	545.765561	-408.412088	191.871415	463.515334	-391.795988	140.066761	385.158732	-396.776361	195.435012	462.039828	-349.480272	90.274578	258.225509	-391.876445	16.197391	233.376846	-358.731656	297.146150	160.487142	-357.110971	212.866966	150.910686	-420.969432	-258.053738	967.000124	-232.815002	-75.801690	83.475723	-437.388566	-82.303622	79.694195	-39.992789	
503	2.5150	652.357733	1493.409329	-1.107709	688.911486	1498.647814	-332.222900	646.310705	1566.371474	-157.334055	638.438595	1419.154918	-173.756322	512.697801	1153.885193	33.764047	688.188826	927.184960	-54.413254	561.672421	1203.541521	-510.766664	706.384279	953.987172	-439.691364	121.661379	1254.062863	-227.849758	284.104004	1299.151318	-373.463564	283.373665	1279.795590	-79.685912	307.232017	1215.789371	-356.402572	308.242206	1236.335310	-103.243370	148.614682	1289.646082	-178.269051	161.873479	1299.359078	-287.904439	245.855880	1168.771754	-38.990748	197.581139	1142.523502	-392.577281	373.341979	1077.915712	-44.974355	449.026080	1035.513336	-58.872764	496.733628	964.492487	-59.945751	469.400568	1059.819501	-79.528015	567.832083	852.472656	-98.775308	551.395318	846.537726	-205.067339	452.283507	773.081610	-72.620785	385.723374	716.705539	-91.757891	302.328126	693.482907	-81.124254	393.159905	707.254337	-130.002417	178.105158	634.930754	-74.835681	98.866140	654.564000	-104.078813	295.739624	441.772383	-122.468735	218.188241	470.936260	-50.257151	204.787398	1022.383720	-406.779437	236.150294	940.476245	-414.712155	272.764651	944.220537	-412.509680	223.554269	852.472499	-408.946960	247.421822	683.152023	-384.362976	241.184318	662.891807	-294.325204	187.652117	548.678305	-407.841792	186.937267	465.921703	-391.566150	135.668081	387.645508	-396.440168	190.536053	465.031047	-349.203133	86.563291	260.711727	-391.728503	12.179069	237.697878	-358.552477	291.193095	157.798592	-357.130782	206.688010	150.334177	-420.910506	-258.097030	967.010604	-232.742228	-75.474871	83.698494	-437.602167	-82.291706	79.684229	-39.981182	
504	2.5200	652.683789	1492.072102	2.258130	690.284477	1498.827818	-328.641892	647.996008	1565.585792	-153.420191	638.619442	1418.475626	-170.710655	511.983058	1152.932912	34.105355	687.785560	926.711339	-54.848360	563.285462	1204.769769	-508.753265	706.768022	953.884753	-439.998094	121.651890	1258.292642	-229.570128	285.602587	1299.882427	-367.019154	281.292825	1283.249939	-79.974101	308.051823	1218.205225	-356.181562	306.690247	1240.020939	-103.160813	148.224401	1294.230665	-179.918632	162.688228	1303.147671	-289.436943	243.922645	1173.125688	-39.568720	198.094096	1145.655945	-393.036376	371.852589	1082.309085	-45.610895	447.711625	1040.114667	-59.615045	495.499937	969.260028	-60.830240	467.908696	1064.558194	-80.169435	567.364272	857.249647	-99.788407	550.609154	851.414014	-206.002019	452.716684	776.485720	-73.640485	386.787885	718.995672	-92.678005	303.943621	694.699699	-81.835126	394.390201	709.898328	-130.931315	180.219030	634.340826	-75.830240	100.030849	652.088486	-104.373220	303.356788	445.135130	-122.442566	225.043873	471.992578	-50.185540	204.078715	1025.657998	-406.729391	234.394545	943.318977	-414.053270	270.939327	946.625479	-411.317318	220.497634	855.561368	-408.470833	241.657123	686.107286	-383.429261	234.933218	665.950467	-293.235575	182.516999	551.645310	-407.238865	182.212777	468.480981	-391.314692	131.445270	390.344287	-396.208065	185.702133	467.977188	-348.806809	82.971170	263.362746	-391.667457	8.170392	241.693563	-357.880628	285.189890	155.379271	-357.110080	200.504334	150.111156	-420.715306	-258.115428	966.994137	-232.600033	-75.605432	83.342211	-437.260888	-82.303508	79.696011	-39.962240	
505	2.5250	653.032448	1490.920328	5.567592	691.775076	1498.784917	-325.147580	649.731866	1564.731030	-149.672679	638.797593	1417.758093	-167.782713	511.380713	1152.077511	34.493869	687.441466	926.469182	-55.248088	564.877054	1205.872674	-506.673097	707.087736	953.723488	-440.206419	121.521655	1262.647815	-231.179310	287.615032	1304.068339	-373.265134	279.599879	1286.551834	-80.555650	308.846633	1220.637017	-355.920222	305.052263	1243.671541	-103.273084	148.148285	1298.737221	-181.634725	163.909107	1307.088133	-291.256279	241.739330	1177.425168	-39.911409	198.641960	1148.788338	-393.532167	370.145153	1086.651117	-46.140931	445.199013	1044.924991	-59.189776	494.017612	973.866782	-61.664964	466.247226	1069.065885	-80.802902	566.615773	861.893089	-100.652734	549.481874	856.120341	-206.819332	452.859358	779.615433	-74.496441	388.608258	721.317233	-93.041570	305.256123	695.699873	-82.532917	395.474162	712.169579	-131.773835	182.898051	633.859445	-75.625816	101.465167	649.104486	-104.565028	310.838113	448.280277	-122.379118	231.796497	472.844019	-50.043134	203.525289	1029.105227	-406.736955	232.893195	946.263640	-413.425942	269.463709	949.101003	-410.140575	217.804358	858.681856	-407.947269	236.529123	689.023107	-382.530876	228.995863	669.171839	-292.244435	177.694437	554.818696	-406.698760	177.700016	471.165082	-391.050551	127.379643	393.232325	-395.976445	181.169091	471.108865	-348.456958	79.409856	266.436057	-391.720784	4.349496	246.323007	-357.711328	279.131632	153.363069	-357.067286	194.359350	150.215132	-420.561218	-258.129405	967.023338	-232.503526	-75.753404	83.496356	-437.324349	-82.308545	79.714761	-39.946913	
506	2.5300	653.403240	1489.877792	8.702179	693.503797	1498.556087	-321.772335	651.475090	1563.694512	-146.225562	639.070766	1416.857225	-164.822637	510.687528	1151.297811	34.947121	687.232094	926.384755	-55.587506	566.381219	1206.774830	-504.715079	707.318042	953.496664	-440.187693	121.437546	1267.042675	-232.719638	289.407386	1306.482977	-373.174920	277.671659	1290.283102	-80.845680	309.615497	1223.042723	-355.337332	303.254182	1247.231125	-103.232500	147.365146	1303.301619	-183.168617	164.737435	1310.829813	-292.680799	239.300191	1181.660707	-40.294647	199.247257	1151.931320	-394.034611	368.192400	1090.776112	-46.426380	443.364257	1049.262513	-59.564005	492.196855	978.242000	-62.164895	464.270979	1073.485181	-81.147002	565.505149	866.257222	-101.377441	548.129854	860.590953	-207.383654	452.674381	782.578912	-75.252629	389.168606	723.197863	-93.642198	306.411103	696.248358	-83.110415	396.305944	714.151325	-132.386761	184.881681	632.517632	-76.414500	102.802082	645.525216	-104.823580	318.308567	451.243577	-122.269285	238.485747	473.355509	-49.938181	203.204939	1032.526001	-406.857540	231.678824	949.329738	-412.740906	268.193025	951.750229	-408.840897	215.406796	861.939568	-407.545602	231.605529	692.326244	-381.662035	223.362187	672.381274	-291.329124	173.233144	558.085007	-406.230844	173.399717	473.946467	-390.780875	123.507453	396.294624	-395.822025	176.813124	474.394781	-348.200545	75.745093	269.517200	-391.617385	0.464592	251.101695	-357.661377	272.925071	151.655380	-357.079269	188.090028	150.677202	-420.448953	-258.118299	967.062695	-232.477039	-75.757031	83.539310	-437.338910	-82.313925	79.715431	-39.961774	
507	2.5350	653.833178	1488.857875	11.687146	695.262921	1498.039642	-318.447295	653.308396	1562.553569	-143.004435	639.386427	1415.815077	-161.842054	509.881861	1150.645284	35.381308	687.152604	926.550193	-55.914522	567.863454	1207.468476	-502.866989	707.537587	953.133443	-440.125372	121.256123	1271.451363	-234.216603	291.060936	1308.825495	-373.012550	275.690737	1294.071256	-81.019845	310.193368	1225.309507	-354.817382	301.415094	1250.677933	-103.064141	147.054369	1307.700765	-184.712839	166.030987	1314.536136	-293.931468	236.676690	1185.728678	-40.592424	199.898624	1155.043985	-394.591585	365.886190	1094.656394	-46.589966	441.185901	1053.257683	-59.796216	490.045370	982.350614	-62.446511	462.041151	1077.581490	-81.287972	564.062727	870.368099	-101.842425	546.505499	864.706345	-207.782364	452.236938	785.234309	-75.788935	400.001599	726.418390	-88.659176	307.331995	696.562688	-83.575642	396.930668	715.728776	-132.843601	186.735948	630.893972	-77.113589	104.261052	641.440646	-105.105943	325.610445	454.031681	-121.928989	245.179764	473.653131	-49.799904	203.060473	1035.843597	-406.871322	230.721039	952.384442	-412.006969	267.192100	954.427842	-407.375350	213.241605	864.720706	-406.976567	227.164939	695.383996	-381.059188	218.208738	675.622169	-290.526402	169.374810	561.254558	-405.858717	169.312080	476.798992	-390.510689	119.732094	399.506326	-395.815962	172.717615	477.668310	-348.013743	71.937566	273.066194	-391.962320	-3.572251	255.760586	-357.708546	266.624819	150.575163	-356.999741	181.783778	151.385560	-420.201833	-258.117491	967.083639	-232.389249	-75.751335	83.549034	-437.311836	-82.314302	79.719512	-39.938396	
